<?xml version="1.0" encoding="UTF-8" standalone="no"?>
<svg width="18px" height="18px" viewBox="0 0 18 18" version="1.1" xmlns="http://www.w3.org/2000/svg" xmlns:xlink="http://www.w3.org/1999/xlink">
    <!-- Generator: Sketch 3.8.3 (29802) - http://www.bohemiancoding.com/sketch -->
    <title>customized</title>
    <desc>Created with Sketch.</desc>
    <defs></defs>
    <g id="Page-1" stroke="none" stroke-width="1" fill="none" fill-rule="evenodd">
        <g id="customized" fill="#4A4A4A">
            <g id="brush">
                <g id="Brush">
                    <path d="M2.4867,12.2067 C1.1232,13.5459 2.2752,14.9211 0.4644,16.9578 C-0.3528,17.8785 3.8286,17.5977 5.8995,15.5619 C6.7788,14.697 6.5304,13.4388 5.5881,12.5118 C4.6458,11.5866 3.3651,11.3418 2.4867,12.2067 L2.4867,12.2067 Z M17.5851,0.5931 C16.8867,-0.0945 9.144,6.1092 6.84,8.3745 C5.6961,9.4995 5.3145,10.1025 4.9644,10.5525 C4.8114,10.7496 5.0139,10.809 5.103,10.8549 C5.5566,11.0871 5.8734,11.3013 6.2829,11.7036 C6.6933,12.1059 6.912,12.4173 7.146,12.8637 C7.1937,12.9519 7.2549,13.1499 7.4538,13.0005 C7.9128,12.6558 8.5257,12.2796 9.6696,11.1564 C11.9745,8.892 18.2853,1.2798 17.5851,0.5931 L17.5851,0.5931 Z" id="Shape"></path>
                </g>
            </g>
        </g>
    </g>
</svg>