<?xml version="1.0" encoding="UTF-8" standalone="no"?>
<svg width="16px" height="20px" viewBox="0 0 16 20" version="1.1" xmlns="http://www.w3.org/2000/svg" xmlns:xlink="http://www.w3.org/1999/xlink">
    <!-- Generator: Sketch 3.8.3 (29802) - http://www.bohemiancoding.com/sketch -->
    <title>digital marketing</title>
    <desc>Created with Sketch.</desc>
    <defs></defs>
    <g id="Page-1" stroke="none" stroke-width="1" fill="none" fill-rule="evenodd">
        <g id="digital-marketing" fill="#4A4A4A">
            <g id="Group-2">
                <g id="tablet">
                    <g id="Tablet">
                        <path d="M14,0 L2,0 C0.9,0 0,0.899 0,2 L0,18 C0,19.1 0.9,20 2,20 L14,20 C15.101,20 16,19.1 16,18 L16,2 C16,0.899 15.101,0 14,0 L14,0 Z M8,19 C7.31,19 6.75,18.553 6.75,18 C6.75,17.447 7.31,17 8,17 C8.689,17 9.25,17.447 9.25,18 C9.25,18.553 8.689,19 8,19 L8,19 Z M14,16 L2,16 L2,2 L14,2 L14,16 L14,16 Z" id="Shape"></path>
                    </g>
                </g>
                <rect id="Rectangle-1" x="4" y="10" width="2" height="4"></rect>
                <rect id="Rectangle-1" x="7" y="7" width="2" height="7"></rect>
                <rect id="Rectangle-1" x="10" y="4" width="2" height="10"></rect>
            </g>
        </g>
    </g>
</svg>