<?xml version="1.0" encoding="UTF-8" standalone="no"?>
<svg width="40px" height="40px" viewBox="0 0 40 40" version="1.1" xmlns="http://www.w3.org/2000/svg" xmlns:xlink="http://www.w3.org/1999/xlink">
    <!-- Generator: Sketch 3.8.3 (29802) - http://www.bohemiancoding.com/sketch -->
    <title>Artboard 10</title>
    <desc>Created with Sketch.</desc>
    <defs></defs>
    <g id="Page-1" stroke="none" stroke-width="1" fill="none" fill-rule="evenodd">
        <g id="Artboard-10">
            <g id="Group-11">
                <g id="Page-1">
                    <path d="M40,20 C40,31.046 31.046,40 20,40 C8.954,40 0,31.046 0,20 C0,8.954 8.954,0 20,0 C31.046,0 40,8.954 40,20" id="Fill-1" fill="#CCCBCB"></path>
                    <path d="M11.5474,30.6943 C9.4204,31.6123 7.2604,32.6613 5.7494,34.0233 C8.8874,37.2123 13.0854,39.3493 17.7744,39.8693 L22.2254,39.8693 C26.9144,39.3493 31.1114,37.2123 34.2504,34.0233 C32.7384,32.6613 30.5774,31.6133 28.4494,30.6963 C24.6094,29.0433 23.3834,27.6513 23.3834,24.6663 C23.3834,22.8763 24.5524,23.4603 25.0684,20.1803 C25.2844,18.8173 26.3214,20.1593 26.5204,17.0523 C26.5204,15.8163 25.9534,15.5073 25.9534,15.5073 C25.9534,15.5073 26.2394,13.6733 26.3544,12.2643 C26.4704,10.7883 25.6334,7.6333 22.1934,6.6663 C21.5904,6.0513 21.1834,5.0733 23.0384,4.0903 C18.9844,3.9003 18.0434,6.0213 15.8854,7.5813 C14.0484,8.9483 13.5544,11.1133 13.6444,12.2643 C13.7604,13.6733 14.0464,15.5073 14.0464,15.5073 C14.0464,15.5073 13.4804,15.8143 13.4804,17.0503 C13.6774,20.1563 14.7154,18.8173 14.9284,20.1763 C15.4424,23.4583 16.6164,22.8763 16.6164,24.6653 C16.6164,27.6473 15.3864,29.0433 11.5474,30.6943" id="Fill-3" fill="#4A4A4A"></path>
                </g>
            </g>
        </g>
    </g>
</svg>