<?xml version="1.0" encoding="UTF-8" standalone="no"?>
<svg width="20px" height="18px" viewBox="0 0 20 18" version="1.1" xmlns="http://www.w3.org/2000/svg" xmlns:xlink="http://www.w3.org/1999/xlink">
    <!-- Generator: Sketch 3.8.3 (29802) - http://www.bohemiancoding.com/sketch -->
    <title>hide</title>
    <desc>Created with Sketch.</desc>
    <defs></defs>
    <g id="Page-1" stroke="none" stroke-width="1" fill="none" fill-rule="evenodd">
        <g id="hide" fill="#4A4A4A">
            <g id="eye-with-line">
                <g id="Eye_with_line">
                    <path d="M18.5214844,0.4776001 C18.131958,0.086853 17.4981079,0.086792 17.1074829,0.477478 L1.4785156,16.1084595 C1.0878906,16.4990845 1.0878906,17.1328736 1.4786377,17.522461 C1.8692627,17.913147 2.5020142,17.913086 2.8926392,17.5224 L18.5214233,1.8916016 C18.9121704,1.5009766 18.9121704,0.8682251 18.5214844,0.4776001 L18.5214844,0.4776001 Z M3.1083984,12.4973145 L5.6677246,9.9388428 C5.5981445,9.6357422 5.5546875,9.3234863 5.5546875,9 C5.5546875,6.6210938 7.5449219,4.6914062 10,4.6914062 C10.2861328,4.6914062 10.5644531,4.7229003 10.8354492,4.7730712 L12.0375976,3.571411 C11.394043,3.467041 10.7192383,3.4003906 10,3.4003906 C3.4394531,3.4003906 0,8.2324219 0,9 C0,9.4234619 1.057373,11.0908203 3.1083984,12.4973145 L3.1083984,12.4973145 Z M16.8950195,5.5046387 L14.3330078,8.065918 C14.4018555,8.3674316 14.4443359,8.6784668 14.4443359,9 C14.4443359,11.3789062 12.4550781,13.3066406 10,13.3066406 C9.7160645,13.3066406 9.4401855,13.2749023 9.1711426,13.2255859 L7.967041,14.4291992 C8.609375,14.5330811 9.2827148,14.5996094 10,14.5996094 C16.5605469,14.5996094 20,9.765625 20,9 C20,8.5756836 18.9438477,6.9101562 16.8950195,5.5046387 L16.8950195,5.5046387 Z" id="Shape"></path>
                </g>
            </g>
        </g>
    </g>
</svg>