<?xml version="1.0" encoding="UTF-8" standalone="no"?>
<svg width="16px" height="18px" viewBox="0 0 16 18" version="1.1" xmlns="http://www.w3.org/2000/svg" xmlns:xlink="http://www.w3.org/1999/xlink">
    <!-- Generator: Sketch 3.8.3 (29802) - http://www.bohemiancoding.com/sketch -->
    <title>tableau reports</title>
    <desc>Created with Sketch.</desc>
    <defs></defs>
    <g id="Page-1" stroke="none" stroke-width="1" fill="none" fill-rule="evenodd">
        <g id="tableau-reports" fill="#4A4A4A">
            <g id="bar-graph">
                <g id="Bar_graph">
                    <path d="M15,0 L13,0 C12.448,0 12,0.447 12,1 L12,17.992 L16,17.992 L16,1 C16,0.447 15.553,0 15,0 L15,0 Z M9,6 L7,6 C6.448,6 6,6.447 6,7 L6,17.992 L10,17.992 L10,7 C10,6.447 9.553,6 9,6 L9,6 Z M3,12 L1,12 C0.448,12 0,12.447 0,13 L0,17.992 L4,17.992 L4,13 C4,12.447 3.553,12 3,12 L3,12 Z" id="Shape"></path>
                </g>
            </g>
        </g>
    </g>
</svg>