<?xml version="1.0" encoding="UTF-8" standalone="no"?>
<svg width="20px" height="12px" viewBox="0 0 20 12" version="1.1" xmlns="http://www.w3.org/2000/svg" xmlns:xlink="http://www.w3.org/1999/xlink">
    <!-- Generator: Sketch 3.8.3 (29802) - http://www.bohemiancoding.com/sketch -->
    <title>view</title>
    <desc>Created with Sketch.</desc>
    <defs></defs>
    <g id="Page-1" stroke="none" stroke-width="1" fill="none" fill-rule="evenodd">
        <g id="view" fill="#0087E6">
            <g id="eye">
                <g id="Eye">
                    <path d="M10,0.4 C3.439,0.4 0,5.232 0,6 C0,6.766 3.439,11.6 10,11.6 C16.56,11.6 20,6.766 20,6 C20,5.232 16.56,0.4 10,0.4 L10,0.4 Z M10,10.307 C7.545,10.307 5.555,8.379 5.555,6 C5.555,3.621 7.545,1.691 10,1.691 C12.455,1.691 14.444,3.621 14.444,6 C14.444,8.379 12.455,10.307 10,10.307 L10,10.307 Z M10,6 C9.593,5.553 10.663,3.846 10,3.846 C8.772,3.846 7.777,4.811 7.777,6 C7.777,7.189 8.772,8.154 10,8.154 C11.227,8.154 12.223,7.189 12.223,6 C12.223,5.453 10.346,6.379 10,6 L10,6 Z" id="Shape"></path>
                </g>
            </g>
        </g>
    </g>
</svg>